HIERARCHY
ROOT Hips
{
 OFFSET 0.000000 0.000000 0.000000
 CHANNELS 6 Xposition Yposition Zposition Yrotation Xrotation Zrotation
 JOINT Chest
 {
  OFFSET 0.000000 9.588913 -0.003946
  CHANNELS 3 Yrotation Xrotation Zrotation
  JOINT Chest2
  {
   OFFSET 0.000000 9.541882 0.008053
   CHANNELS 3 Yrotation Xrotation Zrotation
   JOINT Chest3
   {
    OFFSET 0.000000 9.501360 0.000000
    CHANNELS 3 Yrotation Xrotation Zrotation
    JOINT Chest4
    {
     OFFSET 0.000000 9.491660 0.000000
     CHANNELS 3 Yrotation Xrotation Zrotation
     JOINT Neck
     {
      OFFSET 0.000000 14.331917 0.000000
      CHANNELS 3 Yrotation Xrotation Zrotation
      JOINT Head
      {
       OFFSET 0.000000 8.884799 0.017034
       CHANNELS 3 Yrotation Xrotation Zrotation
       End Site
       {
        OFFSET 0.000000 16.896195 0.008993
       }
      }
     }
     JOINT RightCollar
     {
      OFFSET -2.923010 9.499495 0.000000
      CHANNELS 3 Yrotation Xrotation Zrotation
      JOINT RightShoulder
      {
       OFFSET -13.795216 0.000000 0.000000
       CHANNELS 3 Yrotation Xrotation Zrotation
       JOINT RightElbow
       {
        OFFSET -30.272209 0.000000 0.000000
        CHANNELS 3 Yrotation Xrotation Zrotation
        JOINT RightWrist
        {
         OFFSET -24.478199 0.000000 0.000000
         CHANNELS 3 Yrotation Xrotation Zrotation
         End Site
         {
          OFFSET -18.090752 0.000000 0.000000
         }
        }
       }
      }
     }
     JOINT LeftCollar
     {
      OFFSET 2.923010 9.499495 0.000000
      CHANNELS 3 Yrotation Xrotation Zrotation
      JOINT LeftShoulder
      {
       OFFSET 13.795216 0.000000 0.000000
       CHANNELS 3 Yrotation Xrotation Zrotation
       JOINT LeftElbow
       {
        OFFSET 30.272209 0.000000 0.000000
        CHANNELS 3 Yrotation Xrotation Zrotation
        JOINT LeftWrist
        {
         OFFSET 24.478199 0.000000 0.000000
         CHANNELS 3 Yrotation Xrotation Zrotation
         End Site
         {
          OFFSET 18.090752 0.000000 0.000000
         }
        }
       }
      }
     }
    }
   }
  }
 }
 JOINT RightHip
 {
  OFFSET -7.826875 0.019532 0.001973
  CHANNELS 3 Yrotation Xrotation Zrotation
  JOINT RightKnee
  {
   OFFSET 0.000000 -40.546152 -0.001885
   CHANNELS 3 Yrotation Xrotation Zrotation
   JOINT RightAnkle
   {
    OFFSET 0.000000 -39.417092 -0.003189
    CHANNELS 3 Yrotation Xrotation Zrotation
    JOINT RightToe
    {
     OFFSET 0.000000 -7.579396 17.243563
     CHANNELS 3 Yrotation Xrotation Zrotation
     End Site
     {
      OFFSET 0.000000 -1.500329 6.694466
     }
    }
   }
  }
 }
 JOINT LeftHip
 {
  OFFSET 7.826875 0.019532 0.001973
  CHANNELS 3 Yrotation Xrotation Zrotation
  JOINT LeftKnee
  {
   OFFSET 0.000000 -40.546152 -0.001885
   CHANNELS 3 Yrotation Xrotation Zrotation
   JOINT LeftAnkle
   {
    OFFSET 0.000000 -39.417092 -0.003189
    CHANNELS 3 Yrotation Xrotation Zrotation
    JOINT LeftToe
    {
     OFFSET 0.000000 -7.579396 17.243563
     CHANNELS 3 Yrotation Xrotation Zrotation
     End Site
     {
      OFFSET 0.000000 -1.500329 6.694466
     }
    }
   }
  }
 }
}
MOTION
Frames: 15
Frame Time: 0.008333
-2.329865 49.013064 -7.415223 3.532975 -21.112690 -1.784777 11.829778 9.483718 3.332459 6.660238 5.539965 1.255347 8.353948 6.899091 1.671636 6.660238 5.539965 1.255347 0.891348 14.583400 -1.227930 1.203919 -10.419613 -1.478199 13.000301 -6.794045 -8.777915 27.841985 -46.216119 65.413976 31.769480 23.167487 7.950322 -4.749248 -2.062169 -8.566673 -5.425302 -7.676013 7.060202 -24.860381 -44.384402 -67.104547 -42.446038 7.051407 -23.479782 10.275542 -1.232482 15.586099 41.820953 -62.976457 -13.903520 119.763316 67.162445 141.857168 0.572368 -24.692880 -7.091557 -0.173718 1.080415 -0.081451 41.076472 -85.541801 42.982831 -141.839551 61.808219 -102.705557 0.961894 -15.657109 -16.105079 -0.214210 -0.964367 -0.097254
-2.329518 49.014459 -7.414782 3.531123 -21.112001 -1.781508 11.835179 9.488853 3.329649 6.664587 5.542697 1.255152 8.359407 6.902488 1.671510 6.664587 5.542696 1.255152 0.880420 14.581353 -1.220581 1.190800 -10.421999 -1.467972 13.008249 -6.801987 -8.780609 27.890841 -46.285195 65.401213 31.631483 23.270059 7.850846 -4.857854 -2.032969 -8.497017 -5.428194 -7.677834 7.064854 -24.877697 -44.402138 -67.107280 -42.438922 7.048954 -23.468832 10.283762 -1.234404 15.583628 41.830342 -62.971445 -13.910982 119.746638 67.161262 141.844530 0.569658 -24.695952 -7.091588 -0.171293 1.082559 -0.082197 41.129454 -85.542247 42.928998 -141.857433 61.809461 -102.722172 0.967084 -15.656255 -16.100938 -0.222485 -0.969827 -0.100498
-2.328794 49.015705 -7.413808 3.531870 -21.112852 -1.779642 11.837961 9.494216 3.327077 6.667671 5.544385 1.255326 8.363281 6.904581 1.671806 6.667671 5.544385 1.255326 0.872679 14.581914 -1.213808 1.181152 -10.421626 -1.459096 13.021516 -6.805870 -8.782985 27.944109 -46.351683 65.388527 31.489869 23.368164 7.743658 -4.967333 -2.005439 -8.422924 -5.427311 -7.673704 7.067599 -24.896077 -44.420142 -67.104326 -42.434614 7.051670 -23.459197 10.291531 -1.235274 15.578013 41.834335 -62.965697 -13.913073 119.737113 67.160499 141.837892 0.566218 -24.701022 -7.091682 -0.168399 1.084730 -0.081425 41.144847 -85.541566 42.910347 -141.875581 61.810107 -102.739717 0.971495 -15.654584 -16.098182 -0.229450 -0.976158 -0.102842
-2.327439 49.016532 -7.412778 3.535068 -21.112492 -1.777729 11.838591 9.498459 3.323274 6.669541 5.545125 1.256170 8.365639 6.905483 1.672904 6.669541 5.545125 1.256170 0.867597 14.584071 -1.208657 1.174662 -10.419535 -1.452540 13.039753 -6.807619 -8.786194 28.000239 -46.413918 65.373361 31.347041 23.459491 7.630173 -5.078841 -1.984292 -8.340754 -5.422913 -7.666639 7.068693 -24.914406 -44.439643 -67.097831 -42.429959 7.058277 -23.453007 10.294216 -1.232001 15.570235 41.840008 -62.963521 -13.918208 119.742031 67.158981 141.844752 0.560599 -24.702825 -7.090732 -0.164654 1.082082 -0.079372 41.191821 -85.540420 42.859768 -141.886952 61.812344 -102.750830 0.973940 -15.655708 -16.095629 -0.233981 -0.977592 -0.104072
-2.325425 49.016807 -7.411941 3.536775 -21.109774 -1.774015 11.839910 9.500859 3.318527 6.671223 5.545453 1.257325 8.367764 6.905864 1.674381 6.671223 5.545453 1.257325 0.863401 14.586209 -1.204894 1.169419 -10.417429 -1.447641 13.058067 -6.810834 -8.789944 28.061108 -46.470149 65.354171 31.208412 23.534259 7.518526 -5.193499 -1.969635 -8.254477 -5.418183 -7.662298 7.069111 -24.923004 -44.456476 -67.093331 -42.428635 7.065486 -23.458411 10.296124 -1.227708 15.564354 41.852480 -62.965579 -13.931913 119.752900 67.154615 141.857774 0.555564 -24.699101 -7.090259 -0.161332 1.074342 -0.077300 41.288896 -85.540703 42.761605 -141.895972 61.813839 -102.758617 0.976327 -15.658760 -16.094644 -0.236440 -0.976401 -0.103567
-2.322666 49.016704 -7.410895 3.536602 -21.107789 -1.767547 11.843723 9.504028 3.313353 6.673011 5.545595 1.258096 8.370013 6.906019 1.675375 6.673011 5.545595 1.258096 0.859732 14.588146 -1.201465 1.164803 -10.415519 -1.443213 13.074430 -6.815509 -8.792570 28.119992 -46.522959 65.335550 31.077133 23.587350 7.414875 -5.306282 -1.964557 -8.165380 -5.416639 -7.660491 7.070754 -24.922243 -44.468189 -67.088781 -42.435321 7.071117 -23.473956 10.301965 -1.227164 15.558889 41.870646 -62.965403 -13.952464 119.764108 67.148577 141.870497 0.558522 -24.695902 -7.090332 -0.161327 1.067066 -0.076618 41.394833 -85.540182 42.656780 -141.908762 61.813391 -102.768626 0.976013 -15.661877 -16.096077 -0.235275 -0.977250 -0.101238
-2.319749 49.016251 -7.409774 3.539786 -21.105865 -1.762897 11.845506 9.507130 3.309211 6.674207 5.545787 1.258365 8.371516 6.906249 1.675733 6.674207 5.545787 1.258365 0.858375 14.589135 -1.198067 1.162605 -10.414564 -1.439348 13.092106 -6.820774 -8.794101 28.167257 -46.574900 65.321475 30.954147 23.617230 7.321469 -5.409239 -1.966782 -8.066884 -5.415239 -7.658680 7.074759 -24.927440 -44.478001 -67.080034 -42.444291 7.072829 -23.484213 10.309337 -1.229985 15.550511 41.890282 -62.963310 -13.975548 119.771071 67.142446 141.880102 0.562915 -24.697601 -7.089676 -0.162471 1.063147 -0.076337 41.477542 -85.539625 42.571170 -141.920570 61.813038 -102.777956 0.974272 -15.663574 -16.099437 -0.232825 -0.979013 -0.098081
-2.317608 49.015381 -7.409057 3.545700 -21.101177 -1.764341 11.844693 9.507801 3.309194 6.675113 5.546336 1.258814 8.372660 6.906923 1.676319 6.675113 5.546336 1.258814 0.858660 14.588347 -1.195273 1.162256 -10.415422 -1.436487 13.109674 -6.827409 -8.797100 28.205060 -46.625134 65.309719 30.842181 23.625171 7.240981 -5.499697 -1.966939 -7.964163 -5.412855 -7.657220 7.078033 -24.942768 -44.487628 -67.066286 -42.451587 7.071102 -23.485934 10.316166 -1.233324 15.539325 41.906969 -62.966003 -13.994466 119.773776 67.137994 141.887622 0.561530 -24.700539 -7.089674 -0.161935 1.060847 -0.074203 41.522253 -85.545362 42.519517 -141.930116 61.812293 -102.786157 0.974242 -15.662086 -16.102094 -0.232154 -0.980954 -0.096109
-2.316114 49.014275 -7.408601 3.551013 -21.095226 -1.769084 11.844477 9.506879 3.312357 6.676513 5.546891 1.259660 8.374428 6.907594 1.677408 6.676513 5.546891 1.259660 0.857878 14.587458 -1.192669 1.160836 -10.416395 -1.433578 13.121987 -6.832879 -8.799200 28.238482 -46.673741 65.297960 30.741828 23.627341 7.173712 -5.574734 -1.964499 -7.872691 -5.411712 -7.655527 7.078152 -24.966208 -44.495429 -67.047691 -42.455233 7.067133 -23.483287 10.321471 -1.237025 15.526601 41.920337 -62.972557 -14.007215 119.779059 67.136077 141.897405 0.558056 -24.702738 -7.090287 -0.160524 1.059257 -0.070800 41.546078 -85.555586 42.489586 -141.938109 61.810735 -102.793213 0.974546 -15.660155 -16.101522 -0.232398 -0.981904 -0.096433
-2.314901 49.013183 -7.408061 3.555349 -21.090670 -1.774244 11.845149 9.505515 3.316744 6.678450 5.547364 1.260858 8.376874 6.908155 1.678946 6.678450 5.547364 1.260858 0.855590 14.587613 -1.190414 1.157929 -10.416300 -1.430691 13.128777 -6.835042 -8.799694 28.264379 -46.721560 65.290778 30.652089 23.641245 7.114968 -5.632132 -1.961005 -7.796195 -5.411871 -7.654100 7.075622 -24.992446 -44.500374 -67.028541 -42.452211 7.061033 -23.478503 10.323404 -1.240181 15.516115 41.927798 -62.979007 -14.012881 119.786707 67.135023 141.906982 0.556104 -24.704521 -7.089691 -0.159727 1.058551 -0.068798 41.557065 -85.563548 42.474803 -141.940351 61.810133 -102.794832 0.973964 -15.661286 -16.100252 -0.232218 -0.979658 -0.097268
-2.314358 49.012166 -7.407527 3.560695 -21.086894 -1.782432 11.844398 9.503937 3.323867 6.679811 5.548416 1.262136 8.378603 6.909441 1.680585 6.679811 5.548416 1.262136 0.855135 14.586934 -1.189362 1.157209 -10.417026 -1.429483 13.137273 -6.836989 -8.802119 28.279065 -46.767549 65.291456 30.575782 23.670358 7.062995 -5.680554 -1.953903 -7.730678 -5.408326 -7.655943 7.072730 -25.014018 -44.506565 -67.014983 -42.445125 7.055619 -23.477297 10.324194 -1.242743 15.510249 41.924445 -62.986720 -14.008396 119.794569 67.135200 141.914613 0.555445 -24.705021 -7.088358 -0.157705 1.058588 -0.067966 41.537160 -85.570580 42.490262 -141.936659 61.813315 -102.790629 0.971949 -15.663480 -16.101645 -0.231296 -0.974834 -0.096785
-2.314097 49.011283 -7.407004 3.568424 -21.083968 -1.791729 11.840562 9.503987 3.330994 6.679998 5.549826 1.263273 8.378864 6.911180 1.682037 6.679998 5.549826 1.263273 0.857743 14.585399 -1.189441 1.159945 -10.418586 -1.430160 13.150963 -6.839471 -8.806915 28.284030 -46.809417 65.298102 30.513888 23.711039 7.018671 -5.723196 -1.944784 -7.677687 -5.399841 -7.659292 7.071964 -25.029701 -44.516405 -67.008201 -42.439400 7.051252 -23.478893 10.327729 -1.246420 15.505718 41.916488 -62.993339 -14.001179 119.801913 67.135909 141.921938 0.555170 -24.705585 -7.087591 -0.153677 1.059585 -0.066966 41.510716 -85.577027 42.509540 -141.933363 61.818864 -102.787026 0.970075 -15.665077 -16.103238 -0.230702 -0.969635 -0.096289
-2.313539 49.010537 -7.406564 3.573204 -21.081710 -1.796877 11.836930 9.505506 3.333906 6.680333 5.550823 1.264502 8.379309 6.912402 1.683599 6.680333 5.550823 1.264502 0.861161 14.584733 -1.189711 1.163574 -10.419229 -1.431229 13.166877 -6.839753 -8.812008 28.287042 -46.845516 65.304398 30.461549 23.755638 6.977090 -5.755721 -1.936678 -7.637468 -5.392653 -7.661669 7.073234 -25.041803 -44.527410 -67.004395 -42.434134 7.046450 -23.478052 10.333426 -1.250601 15.498796 41.918331 -62.997281 -14.001085 119.806925 67.136003 141.927715 0.554211 -24.706776 -7.086240 -0.150296 1.061729 -0.065737 41.516791 -85.581885 42.499682 -141.934255 61.822471 -102.788964 0.971695 -15.667961 -16.101541 -0.233130 -0.964322 -0.097235
-2.313554 49.009978 -7.406168 3.571715 -21.080069 -1.802168 11.837640 9.506887 3.337486 6.681250 5.551274 1.266004 8.380483 6.912933 1.685500 6.681250 5.551274 1.266004 0.864670 14.584971 -1.189462 1.167182 -10.418940 -1.431778 13.181826 -6.836855 -8.815089 28.297995 -46.875254 65.301488 30.415505 23.796241 6.936815 -5.779456 -1.933559 -7.607857 -5.388763 -7.664110 7.074529 -25.053740 -44.538501 -66.999451 -42.424301 7.039758 -23.475352 10.338659 -1.252699 15.490221 41.924466 -63.002460 -13.996778 119.810065 67.138373 141.931027 0.552059 -24.707943 -7.083820 -0.148165 1.065326 -0.063619 41.501637 -85.588563 42.518305 -141.936386 61.823841 -102.790381 0.973250 -15.672849 -16.101102 -0.234537 -0.958874 -0.097638
-2.313956 49.009683 -7.405673 3.566833 -21.079885 -1.807902 11.841994 9.509384 3.342606 6.682052 5.551249 1.267702 8.381512 6.912868 1.687636 6.682052 5.551249 1.267702 0.867885 14.586406 -1.189042 1.170447 -10.417415 -1.432086 13.192915 -6.831508 -8.816921 28.320000 -46.898118 65.285412 30.379474 23.826188 6.902263 -5.800702 -1.935671 -7.583770 -5.384458 -7.666613 7.073854 -25.066641 -44.548070 -66.993285 -42.413652 7.030298 -23.472191 10.346102 -1.251049 15.479306 41.927922 -63.006422 -13.985573 119.811021 67.142185 141.930542 0.550434 -24.711878 -7.079963 -0.151163 1.071435 -0.062835 41.450871 -85.595304 42.576051 -141.939669 61.824916 -102.788927 0.967949 -15.677526 -16.105210 -0.229956 -0.956492 -0.095995
